<svg aria-hidden="true" style="position: absolute; width: 0; height: 0; overflow: hidden;" version="1.1" xmlns="http://www.w3.org/2000/svg" xmlns:xlink="http://www.w3.org/1999/xlink">
    <defs>
        <svg id="icon-button-error" viewBox="0 0 24 24">
            <g fill="none">
                <path d="M24 0v24H0V0h24ZM12.5934901 23.257841l-.0115499.0016721-.0710625.0355308-.0189986.003703-.0151639-.003703-.0710604-.0355308c-.0098319-.0031469-.0186055-.0004896-.0235127.0053943l-.0041098.0109236-.0170913.4272787.0049537.0203897.0110101.0122145.1035729.0739792.0148714.0039203.0117661-.0039203.103575-.0739792.0126036-.0160406.0033589-.0165636-.0170917-.4272787c-.0019886-.0101297-.0085498-.0165317-.0160709-.01799Zm.2649005-.1125548-.0138421.002021-.1847042.0923525-.0099621.0102455-.0026879.0112062.0179.4295275.0048406.0127789.0084511.0070753.2009542.0927458c.0120883.003661.0228931-.0002514.0284884-.0080125l.0039949-.0140625-.0341458-.6146308c-.0023895-.0119434-.0102675-.0195315-.0192871-.0212469Zm-.7153433.002021c-.0098295-.0049147-.020871-.0020466-.0274108.0052882l-.0057192.0139377-.0341459.6146308c-.0006391.0115.0070385.0206963.0168767.0234037l.0156079-.0013287.2009546-.0927458.0094391-.0080584.0038546-.0117958.0178967-.4295275-.003156-.0125938-.0094919-.0088579-.1847058-.0923525Z" />
                <path fill="#fb923c" d="M12 5c2.5917 0 4.9861.46489 6.7701 1.25776.8907.39588 1.6734.89316 2.247 1.49587.5302917.55721417.914291 1.24295722.9746083 2.02940757L22 10v4c0 .8777-.4044 1.6385-.9829 2.2464-.5736.6027-1.3563 1.1-2.247 1.4958C16.9861 18.5351 14.5917 19 12 19c-2.59171 0-4.98614-.4649-6.7701-1.2578-.89072-.3958-1.67345-.8931-2.24703-1.4958-.5302825-.5572417-.91426424-1.2429618-.97457867-2.0294313L2 14v-4c0-.87767.40438-1.6385.98287-2.24637.57358-.60271 1.35631-1.09999 2.24703-1.49587C7.01386 5.46489 9.40829 5 12 5Zm8 8.0801c-.3754.2458-.7895.4664-1.2299.6621C16.9861 14.5351 14.5917 15 12 15c-2.59171 0-4.98614-.4649-6.7701-1.2578-.44045-.1957-.85449-.4163-1.2299-.6621V14c0 .2269.0993.5184.43166.8676.33726.3544.87256.719 1.61052 1.047C7.51558 16.5695 9.62114 17 12 17c2.3789 0 4.4844-.4305 5.9578-1.0854.738-.328 1.2733-.6926 1.6105-1.047.3324-.3492.4317-.6407.4317-.8676v-.9199Z" />
            </g>
        </svg>
        <svg id="icon-button-icon" viewBox="0 0 24 24">
            <g fill="none">
                <path d="M24 0v24H0V0h24ZM12.5934901 23.257841l-.0115499.0016721-.0710625.0355308-.0189986.003703-.0151639-.003703-.0710604-.0355308c-.0098319-.0031469-.0186055-.0004896-.0235127.0053943l-.0041098.0109236-.0170913.4272787.0049537.0203897.0110101.0122145.1035729.0739792.0148714.0039203.0117661-.0039203.103575-.0739792.0126036-.0160406.0033589-.0165636-.0170917-.4272787c-.0019886-.0101297-.0085498-.0165317-.0160709-.01799Zm.2649005-.1125548-.0138421.002021-.1847042.0923525-.0099621.0102455-.0026879.0112062.0179.4295275.0048406.0127789.0084511.0070753.2009542.0927458c.0120883.003661.0228931-.0002514.0284884-.0080125l.0039949-.0140625-.0341458-.6146308c-.0023895-.0119434-.0102675-.0195315-.0192871-.0212469Zm-.7153433.002021c-.0098295-.0049147-.020871-.0020466-.0274108.0052882l-.0057192.0139377-.0341459.6146308c-.0006391.0115.0070385.0206963.0168767.0234037l.0156079-.0013287.2009546-.0927458.0094391-.0080584.0038546-.0117958.0178967-.4295275-.003156-.0125938-.0094919-.0088579-.1847058-.0923525Z" />
                <path fill="#fb923c" d="M12 5c2.5917 0 4.9861.46489 6.7701 1.25776.8907.39588 1.6734.89316 2.247 1.49587.5302917.55721417.914291 1.24295722.9746083 2.02940757L22 10v4c0 .8777-.4044 1.6385-.9829 2.2464-.5736.6027-1.3563 1.1-2.247 1.4958C16.9861 18.5351 14.5917 19 12 19c-2.59171 0-4.98614-.4649-6.7701-1.2578-.89072-.3958-1.67345-.8931-2.24703-1.4958-.5302825-.5572417-.91426424-1.2429618-.97457867-2.0294313L2 14v-4c0-.87767.40438-1.6385.98287-2.24637.57358-.60271 1.35631-1.09999 2.24703-1.49587C7.01386 5.46489 9.40829 5 12 5Zm8 8.0801c-.3754.2458-.7895.4664-1.2299.6621C16.9861 14.5351 14.5917 15 12 15c-2.59171 0-4.98614-.4649-6.7701-1.2578-.44045-.1957-.85449-.4163-1.2299-.6621V14c0 .2269.0993.5184.43166.8676.33726.3544.87256.719 1.61052 1.047C7.51558 16.5695 9.62114 17 12 17c2.3789 0 4.4844-.4305 5.9578-1.0854.738-.328 1.2733-.6926 1.6105-1.047.3324-.3492.4317-.6407.4317-.8676v-.9199Z" />
            </g>
        </svg>
        <svg id="icon-button-loading" viewBox="0 0 24 24">
            <g fill="none">
                <path d="M24 0v24H0V0h24ZM12.5934901 23.257841l-.0115499.0016721-.0710625.0355308-.0189986.003703-.0151639-.003703-.0710604-.0355308c-.0098319-.0031469-.0186055-.0004896-.0235127.0053943l-.0041098.0109236-.0170913.4272787.0049537.0203897.0110101.0122145.1035729.0739792.0148714.0039203.0117661-.0039203.103575-.0739792.0126036-.0160406.0033589-.0165636-.0170917-.4272787c-.0019886-.0101297-.0085498-.0165317-.0160709-.01799Zm.2649005-.1125548-.0138421.002021-.1847042.0923525-.0099621.0102455-.0026879.0112062.0179.4295275.0048406.0127789.0084511.0070753.2009542.0927458c.0120883.003661.0228931-.0002514.0284884-.0080125l.0039949-.0140625-.0341458-.6146308c-.0023895-.0119434-.0102675-.0195315-.0192871-.0212469Zm-.7153433.002021c-.0098295-.0049147-.020871-.0020466-.0274108.0052882l-.0057192.0139377-.0341459.6146308c-.0006391.0115.0070385.0206963.0168767.0234037l.0156079-.0013287.2009546-.0927458.0094391-.0080584.0038546-.0117958.0178967-.4295275-.003156-.0125938-.0094919-.0088579-.1847058-.0923525Z" />
                <path fill="#fb923c" d="M12 5c2.5917 0 4.9861.46489 6.7701 1.25776.8907.39588 1.6734.89316 2.247 1.49587.5302917.55721417.914291 1.24295722.9746083 2.02940757L22 10v4c0 .8777-.4044 1.6385-.9829 2.2464-.5736.6027-1.3563 1.1-2.247 1.4958C16.9861 18.5351 14.5917 19 12 19c-2.59171 0-4.98614-.4649-6.7701-1.2578-.89072-.3958-1.67345-.8931-2.24703-1.4958-.5302825-.5572417-.91426424-1.2429618-.97457867-2.0294313L2 14v-4c0-.87767.40438-1.6385.98287-2.24637.57358-.60271 1.35631-1.09999 2.24703-1.49587C7.01386 5.46489 9.40829 5 12 5Zm8 8.0801c-.3754.2458-.7895.4664-1.2299.6621C16.9861 14.5351 14.5917 15 12 15c-2.59171 0-4.98614-.4649-6.7701-1.2578-.44045-.1957-.85449-.4163-1.2299-.6621V14c0 .2269.0993.5184.43166.8676.33726.3544.87256.719 1.61052 1.047C7.51558 16.5695 9.62114 17 12 17c2.3789 0 4.4844-.4305 5.9578-1.0854.738-.328 1.2733-.6926 1.6105-1.047.3324-.3492.4317-.6407.4317-.8676v-.9199Z" />
            </g>
        </svg>
        <svg id="icon-button" viewBox="0 0 24 24">
            <g fill="none">
                <path d="M24 0v24H0V0h24ZM12.5934901 23.257841l-.0115499.0016721-.0710625.0355308-.0189986.003703-.0151639-.003703-.0710604-.0355308c-.0098319-.0031469-.0186055-.0004896-.0235127.0053943l-.0041098.0109236-.0170913.4272787.0049537.0203897.0110101.0122145.1035729.0739792.0148714.0039203.0117661-.0039203.103575-.0739792.0126036-.0160406.0033589-.0165636-.0170917-.4272787c-.0019886-.0101297-.0085498-.0165317-.0160709-.01799Zm.2649005-.1125548-.0138421.002021-.1847042.0923525-.0099621.0102455-.0026879.0112062.0179.4295275.0048406.0127789.0084511.0070753.2009542.0927458c.0120883.003661.0228931-.0002514.0284884-.0080125l.0039949-.0140625-.0341458-.6146308c-.0023895-.0119434-.0102675-.0195315-.0192871-.0212469Zm-.7153433.002021c-.0098295-.0049147-.020871-.0020466-.0274108.0052882l-.0057192.0139377-.0341459.6146308c-.0006391.0115.0070385.0206963.0168767.0234037l.0156079-.0013287.2009546-.0927458.0094391-.0080584.0038546-.0117958.0178967-.4295275-.003156-.0125938-.0094919-.0088579-.1847058-.0923525Z" />
                <path fill="#fb923c" d="M12 5c2.5917 0 4.9861.46489 6.7701 1.25776.8907.39588 1.6734.89316 2.247 1.49587.5302917.55721417.914291 1.24295722.9746083 2.02940757L22 10v4c0 .8777-.4044 1.6385-.9829 2.2464-.5736.6027-1.3563 1.1-2.247 1.4958C16.9861 18.5351 14.5917 19 12 19c-2.59171 0-4.98614-.4649-6.7701-1.2578-.89072-.3958-1.67345-.8931-2.24703-1.4958-.5302825-.5572417-.91426424-1.2429618-.97457867-2.0294313L2 14v-4c0-.87767.40438-1.6385.98287-2.24637.57358-.60271 1.35631-1.09999 2.24703-1.49587C7.01386 5.46489 9.40829 5 12 5Zm8 8.0801c-.3754.2458-.7895.4664-1.2299.6621C16.9861 14.5351 14.5917 15 12 15c-2.59171 0-4.98614-.4649-6.7701-1.2578-.44045-.1957-.85449-.4163-1.2299-.6621V14c0 .2269.0993.5184.43166.8676.33726.3544.87256.719 1.61052 1.047C7.51558 16.5695 9.62114 17 12 17c2.3789 0 4.4844-.4305 5.9578-1.0854.738-.328 1.2733-.6926 1.6105-1.047.3324-.3492.4317-.6407.4317-.8676v-.9199Z" />
            </g>
        </svg>
        <svg id="icon-toggle" viewBox="0 0 24 24">
            <g fill="none" fill-rule="evenodd">
                <path d="M24 0v24H0V0h24ZM12.5934901 23.257841l-.0115499.0016721-.0710625.0355308-.0189986.003703-.0151639-.003703-.0710604-.0355308c-.0098319-.0031469-.0186055-.0004896-.0235127.0053943l-.0041098.0109236-.0170913.4272787.0049537.0203897.0110101.0122145.1035729.0739792.0148714.0039203.0117661-.0039203.103575-.0739792.0126036-.0160406.0033589-.0165636-.0170917-.4272787c-.0019886-.0101297-.0085498-.0165317-.0160709-.01799Zm.2649005-.1125548-.0138421.002021-.1847042.0923525-.0099621.0102455-.0026879.0112062.0179.4295275.0048406.0127789.0084511.0070753.2009542.0927458c.0120883.003661.0228931-.0002514.0284884-.0080125l.0039949-.0140625-.0341458-.6146308c-.0023895-.0119434-.0102675-.0195315-.0192871-.0212469Zm-.7153433.002021c-.0098295-.0049147-.020871-.0020466-.0274108.0052882l-.0057192.0139377-.0341459.6146308c-.0006391.0115.0070385.0206963.0168767.0234037l.0156079-.0013287.2009546-.0927458.0094391-.0080584.0038546-.0117958.0178967-.4295275-.003156-.0125938-.0094919-.0088579-.1847058-.0923525Z" />
                <path fill="#fb923c" d="M7 6c-3.31371 0-6 2.68629-6 6 0 3.3137 2.68629 6 6 6h10c3.3137 0 6-2.6863 6-6 0-3.31371-2.6863-6-6-6H7Zm10 10c2.2091 0 4-1.7909 4-4 0-2.20914-1.7909-4-4-4-2.2091 0-4 1.79086-4 4 0 2.2091 1.7909 4 4 4Z" />
            </g>
        </svg>
        <svg id="icon-select" viewBox="0 0 24 24">
            <g fill="none">
                <path d="M24 0v24H0V0h24ZM12.5934901 23.257841l-.0115499.0016721-.0710625.0355308-.0189986.003703-.0151639-.003703-.0710604-.0355308c-.0098319-.0031469-.0186055-.0004896-.0235127.0053943l-.0041098.0109236-.0170913.4272787.0049537.0203897.0110101.0122145.1035729.0739792.0148714.0039203.0117661-.0039203.103575-.0739792.0126036-.0160406.0033589-.0165636-.0170917-.4272787c-.0019886-.0101297-.0085498-.0165317-.0160709-.01799Zm.2649005-.1125548-.0138421.002021-.1847042.0923525-.0099621.0102455-.0026879.0112062.0179.4295275.0048406.0127789.0084511.0070753.2009542.0927458c.0120883.003661.0228931-.0002514.0284884-.0080125l.0039949-.0140625-.0341458-.6146308c-.0023895-.0119434-.0102675-.0195315-.0192871-.0212469Zm-.7153433.002021c-.0098295-.0049147-.020871-.0020466-.0274108.0052882l-.0057192.0139377-.0341459.6146308c-.0006391.0115.0070385.0206963.0168767.0234037l.0156079-.0013287.2009546-.0927458.0094391-.0080584.0038546-.0117958.0178967-.4295275-.003156-.0125938-.0094919-.0088579-.1847058-.0923525Z" />
                <path fill="#fb923c" d="M20 17.5c.8284 0 1.5.6716 1.5 1.5s-.6716 1.5-1.5 1.5H9c-.82843 0-1.5-.6716-1.5-1.5s.67157-1.5 1.5-1.5h11Zm-15.5 0c.82843 0 1.5.6716 1.5 1.5s-.67157 1.5-1.5 1.5S3 19.8284 3 19s.67157-1.5 1.5-1.5Zm15.5-7c.8284 0 1.5.6716 1.5 1.5 0 .7796706-.5949121 1.4204457-1.3555442 1.4931332L20 13.5H9c-.82843 0-1.5-.6716-1.5-1.5 0-.7796706.59488554-1.4204457 1.35553954-1.4931332L9 10.5h11Zm-15.5 0c.82843 0 1.5.6716 1.5 1.5s-.67157 1.5-1.5 1.5S3 12.8284 3 12s.67157-1.5 1.5-1.5Zm0-7C5.32843 3.5 6 4.17157 6 5s-.67157 1.5-1.5 1.5S3 5.82843 3 5s.67157-1.5 1.5-1.5Zm15.5 0c.8284 0 1.5.67157 1.5 1.5 0 .77969882-.5949121 1.420449-1.3555442 1.49313345L20 6.5H9c-.82843 0-1.5-.67157-1.5-1.5 0-.77969882.59488554-1.420449 1.35553954-1.49313345L9 3.5h11Z" />
            </g>
        </svg>
        <svg id="icon-range" viewBox="0 0 24 24">
            <g fill="none" fill-rule="evenodd">
                <path d="M24 0v24H0V0h24ZM12.5934901 23.257841l-.0115499.0016721-.0710625.0355308-.0189986.003703-.0151639-.003703-.0710604-.0355308c-.0098319-.0031469-.0186055-.0004896-.0235127.0053943l-.0041098.0109236-.0170913.4272787.0049537.0203897.0110101.0122145.1035729.0739792.0148714.0039203.0117661-.0039203.103575-.0739792.0126036-.0160406.0033589-.0165636-.0170917-.4272787c-.0019886-.0101297-.0085498-.0165317-.0160709-.01799Zm.2649005-.1125548-.0138421.002021-.1847042.0923525-.0099621.0102455-.0026879.0112062.0179.4295275.0048406.0127789.0084511.0070753.2009542.0927458c.0120883.003661.0228931-.0002514.0284884-.0080125l.0039949-.0140625-.0341458-.6146308c-.0023895-.0119434-.0102675-.0195315-.0192871-.0212469Zm-.7153433.002021c-.0098295-.0049147-.020871-.0020466-.0274108.0052882l-.0057192.0139377-.0341459.6146308c-.0006391.0115.0070385.0206963.0168767.0234037l.0156079-.0013287.2009546-.0927458.0094391-.0080584.0038546-.0117958.0178967-.4295275-.003156-.0125938-.0094919-.0088579-.1847058-.0923525Z" />
                <path fill="#fb923c" d="M18 4c0-.55228-.4477-1-1-1s-1 .44772-1 1v1H4c-.55228 0-1 .44772-1 1s.44772 1 1 1h12v1c0 .55228.4477 1 1 1s1-.44772 1-1V7h2c.5523 0 1-.44772 1-1s-.4477-1-1-1h-2V4ZM4 11c-.55228 0-1 .4477-1 1s.44772 1 1 1h2v1c0 .5523.44772 1 1 1s1-.4477 1-1v-1h12c.5523 0 1-.4477 1-1s-.4477-1-1-1H8v-1c0-.55228-.44772-1-1-1s-1 .44772-1 1v1H4Zm-1 7c0-.5523.44772-1 1-1h12v-1c0-.5523.4477-1 1-1s1 .4477 1 1v1h2c.5523 0 1 .4477 1 1s-.4477 1-1 1h-2v1c0 .5523-.4477 1-1 1s-1-.4477-1-1v-1H4c-.55228 0-1-.4477-1-1Z" />
            </g>
        </svg>
        <svg id="icon-radio" viewBox="0 0 24 24">
            <g fill="none">
                <path d="M24 0v24H0V0h24ZM12.5934901 23.257841l-.0115499.0016721-.0710625.0355308-.0189986.003703-.0151639-.003703-.0710604-.0355308c-.0098319-.0031469-.0186055-.0004896-.0235127.0053943l-.0041098.0109236-.0170913.4272787.0049537.0203897.0110101.0122145.1035729.0739792.0148714.0039203.0117661-.0039203.103575-.0739792.0126036-.0160406.0033589-.0165636-.0170917-.4272787c-.0019886-.0101297-.0085498-.0165317-.0160709-.01799Zm.2649005-.1125548-.0138421.002021-.1847042.0923525-.0099621.0102455-.0026879.0112062.0179.4295275.0048406.0127789.0084511.0070753.2009542.0927458c.0120883.003661.0228931-.0002514.0284884-.0080125l.0039949-.0140625-.0341458-.6146308c-.0023895-.0119434-.0102675-.0195315-.0192871-.0212469Zm-.7153433.002021c-.0098295-.0049147-.020871-.0020466-.0274108.0052882l-.0057192.0139377-.0341459.6146308c-.0006391.0115.0070385.0206963.0168767.0234037l.0156079-.0013287.2009546-.0927458.0094391-.0080584.0038546-.0117958.0178967-.4295275-.003156-.0125938-.0094919-.0088579-.1847058-.0923525Z" />
                <path fill="#fb923c" d="M12 2c5.5228 0 10 4.47715 10 10 0 5.5228-4.4772 10-10 10-5.52285 0-10-4.4772-10-10C2 6.47715 6.47715 2 12 2Zm2 6h-4c-1.10457 0-2 .89543-2 2v4c0 1.1046.89543 2 2 2h4c1.1046 0 2-.8954 2-2v-4c0-1.10457-.8954-2-2-2Z" />
            </g>
        </svg>
        <svg id="icon-input" viewBox="0 0 24 24">
            <g fill="none">
                <path d="M24 0v24H0V0h24ZM12.5934901 23.257841l-.0115499.0016721-.0710625.0355308-.0189986.003703-.0151639-.003703-.0710604-.0355308c-.0098319-.0031469-.0186055-.0004896-.0235127.0053943l-.0041098.0109236-.0170913.4272787.0049537.0203897.0110101.0122145.1035729.0739792.0148714.0039203.0117661-.0039203.103575-.0739792.0126036-.0160406.0033589-.0165636-.0170917-.4272787c-.0019886-.0101297-.0085498-.0165317-.0160709-.01799Zm.2649005-.1125548-.0138421.002021-.1847042.0923525-.0099621.0102455-.0026879.0112062.0179.4295275.0048406.0127789.0084511.0070753.2009542.0927458c.0120883.003661.0228931-.0002514.0284884-.0080125l.0039949-.0140625-.0341458-.6146308c-.0023895-.0119434-.0102675-.0195315-.0192871-.0212469Zm-.7153433.002021c-.0098295-.0049147-.020871-.0020466-.0274108.0052882l-.0057192.0139377-.0341459.6146308c-.0006391.0115.0070385.0206963.0168767.0234037l.0156079-.0013287.2009546-.0927458.0094391-.0080584.0038546-.0117958.0178967-.4295275-.003156-.0125938-.0094919-.0088579-.1847058-.0923525Z" />
                <path fill="#fb923c" d="M5 2.5c-.82843 0-1.5.67157-1.5 1.5S4.17157 5.5 5 5.5h5.5V20c0 .8284.6716 1.5 1.5 1.5s1.5-.6716 1.5-1.5V5.5H19c.8284 0 1.5-.67157 1.5-1.5s-.6716-1.5-1.5-1.5H5Z" />
            </g>
        </svg>
        <svg id="icon-color" viewBox="0 0 24 24">
            <g fill="none" fill-rule="evenodd">
                <path d="M24 0v24H0V0h24ZM12.5934901 23.257841l-.0115499.0016721-.0710625.0355308-.0189986.003703-.0151639-.003703-.0710604-.0355308c-.0098319-.0031469-.0186055-.0004896-.0235127.0053943l-.0041098.0109236-.0170913.4272787.0049537.0203897.0110101.0122145.1035729.0739792.0148714.0039203.0117661-.0039203.103575-.0739792.0126036-.0160406.0033589-.0165636-.0170917-.4272787c-.0019886-.0101297-.0085498-.0165317-.0160709-.01799Zm.2649005-.1125548-.0138421.002021-.1847042.0923525-.0099621.0102455-.0026879.0112062.0179.4295275.0048406.0127789.0084511.0070753.2009542.0927458c.0120883.003661.0228931-.0002514.0284884-.0080125l.0039949-.0140625-.0341458-.6146308c-.0023895-.0119434-.0102675-.0195315-.0192871-.0212469Zm-.7153433.002021c-.0098295-.0049147-.020871-.0020466-.0274108.0052882l-.0057192.0139377-.0341459.6146308c-.0006391.0115.0070385.0206963.0168767.0234037l.0156079-.0013287.2009546-.0927458.0094391-.0080584.0038546-.0117958.0178967-.4295275-.003156-.0125938-.0094919-.0088579-.1847058-.0923525Z" />
                <path fill="#fb923c" d="M20.477 3.511c-1.1715-1.17157-3.071-1.17157-4.2426 0l-1.5329 1.53287c-1.1125-.53471-2.4875-.34091-3.4098.58142l-.7142.71414c-.78101.78105-.78101 2.04738 0 2.82843L4.0923 15.6533c-.56261.5626-.87868 1.3257-.87868 2.1213v1.8c0 .6627.53726 1.2 1.2 1.2h1.8c.79565 0 1.55872-.3161 2.12132-.8787l6.48536-6.4853c.781.7809 2.0473.7809 2.8283-.0001l.7142-.7141c.9223-.9224 1.1161-2.2973.5814-3.40989l1.5328-1.53287c1.1716-1.17157 1.1716-3.07106 0-4.24264ZM5.50652 17.0675l6.48528-6.4853 1.4142 1.4142-6.48527 6.4853c-.18754.1875-.44189.2929-.70711.2929h-1v-1c0-.2652.10536-.5196.2929-.7071Z" />
            </g>
        </svg>
        <svg id="icon-checkbox" viewBox="0 0 24 24">
            <g fill="none">
                <path d="M24 0v24H0V0h24ZM12.5934901 23.257841l-.0115499.0016721-.0710625.0355308-.0189986.003703-.0151639-.003703-.0710604-.0355308c-.0098319-.0031469-.0186055-.0004896-.0235127.0053943l-.0041098.0109236-.0170913.4272787.0049537.0203897.0110101.0122145.1035729.0739792.0148714.0039203.0117661-.0039203.103575-.0739792.0126036-.0160406.0033589-.0165636-.0170917-.4272787c-.0019886-.0101297-.0085498-.0165317-.0160709-.01799Zm.2649005-.1125548-.0138421.002021-.1847042.0923525-.0099621.0102455-.0026879.0112062.0179.4295275.0048406.0127789.0084511.0070753.2009542.0927458c.0120883.003661.0228931-.0002514.0284884-.0080125l.0039949-.0140625-.0341458-.6146308c-.0023895-.0119434-.0102675-.0195315-.0192871-.0212469Zm-.7153433.002021c-.0098295-.0049147-.020871-.0020466-.0274108.0052882l-.0057192.0139377-.0341459.6146308c-.0006391.0115.0070385.0206963.0168767.0234037l.0156079-.0013287.2009546-.0927458.0094391-.0080584.0038546-.0117958.0178967-.4295275-.003156-.0125938-.0094919-.0088579-.1847058-.0923525Z" />
                <path fill="#fb923c" d="M12 2c5.5228 0 10 4.47715 10 10 0 5.5228-4.4772 10-10 10-5.52285 0-10-4.4772-10-10C2 6.47715 6.47715 2 12 2Zm3.5354 6.38136-4.9498 4.94974-2.12129-2.1213c-.39052-.3905-1.02368-.3905-1.41421 0-.39052.3905-.39052 1.0237 0 1.4142l2.75772 2.7577c.42958.4296 1.12608.4296 1.55568 0l5.5861-5.58613c.3905-.39052.3905-1.02369 0-1.41421-.3905-.39053-1.0237-.39053-1.4142 0Z" />
            </g>
        </svg>
    </defs>
</svg>